<?xml version="1.0" encoding="utf-8"?>
<!-- Generator: Adobe Illustrator 23.0.4, SVG Export Plug-In . SVG Version: 6.00 Build 0)  -->
<svg version="1.1" id="Layer_1" xmlns="http://www.w3.org/2000/svg" xmlns:xlink="http://www.w3.org/1999/xlink" x="0px" y="0px"
	 viewBox="0 0 1082.6 301.6" style="enable-background:new 0 0 1082.6 301.6;" xml:space="preserve">
<style type="text/css">
	.st0{fill:#FFFFFF;}
	.st1{fill:url(#SVGID_1_);}
	.st2{fill:#E51F57;}
	.st3{fill:url(#SVGID_2_);}
	.st4{fill:url(#SVGID_3_);}
	.st5{fill:url(#SVGID_4_);}
	.st6{fill:url(#SVGID_5_);}
	.st7{fill:#E01E26;}
	.st8{fill:#E31E26;}
	.st9{fill:#DE2127;}
	.st10{fill:#DD1F26;}
	.st11{fill:url(#SVGID_6_);}
	.st12{fill:url(#SVGID_7_);}
	.st13{fill:#FFEA24;}
	.st14{fill:url(#SVGID_8_);}
	.st15{fill:url(#SVGID_9_);}
	.st16{fill:url(#SVGID_10_);}
	.st17{fill:url(#SVGID_11_);}
	.st18{fill:url(#SVGID_12_);}
	.st19{fill:#EE2524;}
	.st20{fill:url(#SVGID_13_);}
	.st21{fill:url(#SVGID_14_);}
	.st22{fill:#EB2224;}
	.st23{fill:url(#SVGID_15_);}
	.st24{fill:url(#SVGID_16_);}
	.st25{fill:url(#SVGID_17_);}
	.st26{fill:#F7EC0C;}
	.st27{fill:url(#SVGID_18_);}
	.st28{fill:url(#SVGID_19_);}
	.st29{fill:#F68C1F;}
	.st30{fill:url(#SVGID_20_);}
	.st31{fill:url(#SVGID_21_);}
	.st32{fill:url(#SVGID_22_);}
	.st33{fill:url(#SVGID_23_);}
	.st34{fill:url(#SVGID_24_);}
	.st35{fill:url(#SVGID_25_);}
	.st36{fill:#ADD361;}
	.st37{fill:#10763C;}
	.st38{fill:url(#SVGID_26_);}
	.st39{fill:url(#SVGID_27_);}
	.st40{fill:url(#SVGID_28_);}
	.st41{fill:#0F773C;}
	.st42{fill:url(#SVGID_29_);}
	.st43{fill:url(#SVGID_30_);}
	.st44{fill:url(#SVGID_31_);}
	.st45{fill:url(#SVGID_32_);}
	.st46{fill:url(#SVGID_33_);}
	.st47{fill:url(#SVGID_34_);}
	.st48{fill:url(#SVGID_35_);}
	.st49{fill:url(#SVGID_36_);}
	.st50{fill:#65CADF;}
	.st51{fill:#D9F0FA;}
	.st52{fill:url(#SVGID_37_);}
	.st53{fill:#3060AD;}
	.st54{fill:url(#SVGID_38_);}
	.st55{fill:url(#SVGID_39_);}
	.st56{fill:#C062A6;}
	.st57{fill:url(#SVGID_40_);}
	.st58{fill:url(#SVGID_41_);}
	.st59{fill:url(#SVGID_42_);}
	.st60{fill:#541347;}
	.st61{fill:url(#SVGID_43_);}
	.st62{fill:url(#SVGID_44_);}
	.st63{fill:url(#SVGID_45_);}
	.st64{fill:url(#SVGID_46_);}
	.st65{fill:url(#SVGID_47_);}
	.st66{fill:#A54F9E;}
</style>
<g>
	<path class="st0" d="M944,3c1.4,0,2.8,0,4.1,0.1h89.7h21.1l-10.8,18.1l-30.9,51.9l-3.5,5.9h-6.8h-27.5h-0.6l-0.6-0.1
		c-0.1,0-0.2,0-0.6,0c-0.4,0-0.5,0-0.5,0l-0.1,0l-0.1,0c-4.8,0.4-8.6,4.5-8.6,9.3c0,2.4,0.9,4.3,1.7,5.4l0.3,0.3l0,0l0,0l11.2,15
		l62,83.1c8.8,11.6,13.4,25.5,13.4,40c0,1.1,0,2.1-0.1,3.2c-1.7,35.5-30.8,63.3-66.4,63.3h-98.2h-12v-12v-51.9v-12h12h65.4
		c4.3,0,7.8-3.5,7.8-7.8c0-1.5-0.4-3-1.2-4.2l-0.1-0.1l-0.1-0.1c0-0.1-0.1-0.2-0.4-0.5l-0.2-0.2l-0.2-0.2l-0.1-0.1l-0.1-0.1
		l-0.1-0.1l-11.7-16.1l-61.2-84.6c-8.4-11.4-12.8-25-12.8-39.2C877.5,32.8,907.3,3,944,3 M865.9,3.1v12v271.5v12h-12h-51.3h-12v-12
		V15.1v-12h12h51.3H865.9 M567.3,3.1v12V67v12h-12h-40.3v207.6v12h-12h-51.3h-12v-12V79h-40.3h-12V67V15.1v-12h12h155.9H567.3
		 M182.9,3.1v12V67v12h-12h-40.3v207.6v12h-12H67.3h-12v-12V79H15H3V67V15.1v-12h12h155.9H182.9 M708.4,3.1l0.4,0
		c33.8,2.3,60.3,29.5,61.9,63.2c0,1,0.1,2,0.1,3.1c0,13.4-4,26.2-11.4,37.3l-0.1,0.1l-0.1,0.1l-1.5,2l-0.2,0.3l0,0l-17.9,25.1
		l36.6,60.7l1.7,2.9v3.3v85.3v12h-12h-8.5h-6.8l-3.5-5.8l-91.3-151.1v30.7v114.1v12h-12h-51.3h-12v-12V15.1v-12h12H708H708.4
		 M655.7,122.9l10.3-14.1l11.1-15.2l0-0.1l0.1-0.1c0.8-1.1,1.8-2.9,1.8-5.4c0-4.7-3.7-8.7-8.4-9.1l-0.1,0l-0.1,0c0,0-0.2,0-0.5,0
		c-0.3,0-0.5,0-0.5,0l-0.6,0.1h-0.6h-12.3V122.9 M375.1,3.1v12V67v12h-12h-92.6v25.2h65.9h20.6l-10.2,17.9L317.4,174l-3.5,6.1h-7
		h-36.4v33.6c0,5,4.1,9.1,9.1,9.1h96h7l3.5,6.1l29.5,51.9l10.2,17.9h-20.6H258.6c-34.9,0-63.3-28.4-63.3-63.3V15.1v-12h12h155.9
		H375.1 M944,0c-38.3,0-69.5,31.2-69.5,69.5c0,14.8,4.6,29,13.3,40.9l61.2,84.6l11.7,16.1l0.1,0.1l0.1,0.1l0.1,0.1l0.2,0.2l0,0.1
		l0,0.1l0.2,0.2c0.1,0.1,0.1,0.2,0.2,0.2l0,0.1l0,0l0,0l0.1,0.1c0.5,0.8,0.8,1.6,0.8,2.6c0,2.7-2.2,4.8-4.8,4.8h-65.4h-12h-3v3v12
		v51.9v12v3h3h12h98.2c37.2,0,67.6-29.1,69.4-66.1c0.1-1.1,0.1-2.2,0.1-3.3c0-15.2-4.8-29.7-14-41.8l-61.9-83l-11.2-15l0,0l0,0
		l-0.2-0.3c-0.5-0.8-1.1-2-1.1-3.6c0-3.3,2.5-6.1,5.8-6.3l0.1,0l0,0l0,0l0.1,0c0.1,0,0.1,0,0.3,0c0.1,0,0.2,0,0.3,0l0.6,0.1l0.2,0
		h0.2h0.6h27.5h6.8h1.7l0.9-1.5l3.5-5.9l30.9-51.9l10.8-18.1l2.7-4.5h-5.3h-21.1h-89.6C946.9,0,945.4,0,944,0L944,0z M868.9,0.1h-3
		h-12h-51.3h-12h-3v3v12v271.5v12v3h3h12h51.3h12h3v-3v-12V15.1v-12V0.1L868.9,0.1z M570.3,0.1h-3h-12H399.4h-12h-3v3v12V67v12v3h3
		h12h37.3v204.6v12v3h3h12h51.3h12h3v-3v-12V82h37.3h12h3v-3V67V15.1v-12V0.1L570.3,0.1z M185.9,0.1h-3h-12H15H3H0v3v12V67v12v3h3
		h12h37.3v204.6v12v3h3h12h51.3h12h3v-3v-12V82h37.3h12h3v-3V67V15.1v-12V0.1L185.9,0.1z M708.5,0.1h-0.1H708H592.4h-12h-3v3v12
		v271.5v12v3h3h12h51.3h12h3v-3v-12V172.5v-20l85.7,141.8l3.5,5.8l0.9,1.4h1.7h6.8h8.5h12h3v-3v-12v-85.3V198v-0.8l-0.4-0.7
		l-1.7-2.9l-35.5-59l16.7-23.4l0,0l0.1-0.1l0.2-0.3l1.5-2l0.1-0.1l0,0l0,0l0.1-0.1c7.8-11.5,12-25,12-39c0-1.1,0-2.2-0.1-3.2
		C772.1,31,744.3,2.5,709,0.2l-0.4,0L708.5,0.1L708.5,0.1z M669.6,81.9c0,0,0.1,0,0.3,0c0.1,0,0.2,0,0.3,0l0.1,0l0,0l0,0l0.1,0
		c3.1,0.3,5.6,2.9,5.6,6.1c0,1.7-0.7,2.9-1.2,3.7l-0.1,0.1l-0.1,0.1L663.6,107l-4.8,6.6V82h9.3h0.6h0.2l0.2,0L669.6,81.9L669.6,81.9
		z M378.1,0.1h-3h-12H207.2h-12h-3v3v12v220.1c0,36.6,29.8,66.3,66.3,66.3h146.6h20.6h5.2l-2.6-4.5l-10.2-17.9l-29.5-51.8l-3.5-6.1
		l-0.9-1.5h-1.7h-7h-96c-3.4,0-6.1-2.8-6.1-6.1V183H307h7h1.7l0.9-1.5l3.5-6.1l29.5-51.9l10.2-17.9l2.6-4.5h-5.2h-20.6h-62.9V82
		h89.6h12h3v-3V67V15.1v-12V0.1L378.1,0.1z"/>
</g>
<circle class="st0" cx="1064.6" cy="62.6" r="18"/>
<g>
	<g>
		<linearGradient id="SVGID_1_" gradientUnits="userSpaceOnUse" x1="92.9449" y1="14.7989" x2="92.9449" y2="205.4896">
			<stop  offset="9.011765e-02" style="stop-color:#EE3247"/>
			<stop  offset="0.5125" style="stop-color:#EF4B67"/>
		</linearGradient>
		<polygon class="st1" points="61.3,292.6 61.3,73 9,73 9,9.1 176.9,9.1 176.9,73 124.6,73 124.6,292.6 		"/>
		<path class="st2" d="M61.3,225.6v1.8c20.2-12.3,41.3-23.6,63.3-34.1v-3.4C102.6,200.8,81.4,212.7,61.3,225.6z"/>
		<linearGradient id="SVGID_2_" gradientUnits="userSpaceOnUse" x1="92.9446" y1="292.8901" x2="92.9446" y2="192.2241">
			<stop  offset="0" style="stop-color:#DD1F26"/>
			<stop  offset="1" style="stop-color:#9D1C1F"/>
		</linearGradient>
		<path class="st3" d="M61.3,292.6h63.3v-99.4c-22,10.4-43.2,21.8-63.3,34.1V292.6z"/>
	</g>
	<linearGradient id="SVGID_3_" gradientUnits="userSpaceOnUse" x1="9" y1="1.1476" x2="9" y2="77.5457">
		<stop  offset="0" style="stop-color:#E41C42"/>
		<stop  offset="1" style="stop-color:#EE1E4D"/>
	</linearGradient>
	<polygon class="st4" points="15,15.1 3,3.1 3,15.1 3,67 3,79 15,67 	"/>
	<linearGradient id="SVGID_4_" gradientUnits="userSpaceOnUse" x1="3" y1="9.1292" x2="182.8896" y2="9.1292">
		<stop  offset="0" style="stop-color:#FFFAFC"/>
		<stop  offset="0.5171" style="stop-color:#FBD3DA"/>
		<stop  offset="1" style="stop-color:#F15B69"/>
	</linearGradient>
	<polygon class="st5" points="170.9,15.1 182.9,3.1 170.9,3.1 15,3.1 3,3.1 15,15.1 	"/>
	<linearGradient id="SVGID_5_" gradientUnits="userSpaceOnUse" x1="61.2756" y1="66.9823" x2="61.2756" y2="298.6149">
		<stop  offset="3.820853e-02" style="stop-color:#DE1F26"/>
		<stop  offset="0.9717" style="stop-color:#ED1D33"/>
	</linearGradient>
	<polygon class="st6" points="67.3,67 55.3,79 55.3,286.6 55.3,298.6 67.3,286.6 	"/>
	<polygon class="st7" points="15,67 3,79 15,79 55.3,79 67.3,67 	"/>
	<polygon class="st8" points="170.9,15.1 170.9,67 182.9,79 182.9,67 182.9,15.1 182.9,3.1 	"/>
	<polygon class="st7" points="118.6,67 130.6,79 170.9,79 182.9,79 170.9,67 	"/>
	<polygon class="st9" points="118.6,286.6 130.6,298.6 130.6,286.6 130.6,79 118.6,67 	"/>
	<polygon class="st10" points="67.3,286.6 55.3,298.6 67.3,298.6 118.6,298.6 130.6,298.6 118.6,286.6 	"/>
</g>
<g>
	<g>
		<linearGradient id="SVGID_6_" gradientUnits="userSpaceOnUse" x1="308.3716" y1="292.6098" x2="308.3716" y2="9.1298">
			<stop  offset="0.4575" style="stop-color:#FDD726"/>
			<stop  offset="0.6983" style="stop-color:#FDC11E"/>
			<stop  offset="0.9772" style="stop-color:#F58423"/>
		</linearGradient>
		<path class="st11" d="M258.6,292.6c-31.6,0-57.3-25.7-57.3-57.3V9.1h167.9V73H264.6v37.2h82.3L310.4,174h-45.9v39.6
			c0,8.3,6.8,15.1,15.1,15.1h99.4l36.4,63.9H258.6z"/>
		<linearGradient id="SVGID_7_" gradientUnits="userSpaceOnUse" x1="308.3716" y1="125.7712" x2="308.3716" y2="292.8776">
			<stop  offset="0" style="stop-color:#F04D23"/>
			<stop  offset="0.5" style="stop-color:#F78E1E"/>
			<stop  offset="1" style="stop-color:#FCB216"/>
		</linearGradient>
		<path class="st12" d="M201.2,235.3c0,31.6,25.7,57.3,57.3,57.3h157l-36.4-63.9h-99.4c-8.3,0-15.1-6.8-15.1-15.1V174h45.9
			l27.7-48.5c-47.3,8.9-93.3,21.1-136.9,36.4V235.3z"/>
		<path class="st13" d="M201.2,156.9v5c43.6-15.3,89.6-27.5,136.9-36.4l4.4-7.7C293.6,127.3,246.2,140.3,201.2,156.9z"/>
	</g>
	<linearGradient id="SVGID_8_" gradientUnits="userSpaceOnUse" x1="258.5598" y1="174.0499" x2="313.9345" y2="174.0499">
		<stop  offset="0" style="stop-color:#EE2424"/>
		<stop  offset="0.9765" style="stop-color:#EE3424"/>
	</linearGradient>
	<polygon class="st14" points="258.6,168 270.6,180 307,180 313.9,180 307,168 	"/>
	<linearGradient id="SVGID_9_" gradientUnits="userSpaceOnUse" x1="258.7426" y1="201.4049" x2="385.0977" y2="201.4049">
		<stop  offset="9.922455e-02" style="stop-color:#ED1E24"/>
		<stop  offset="0.5497" style="stop-color:#F26222"/>
		<stop  offset="0.9814" style="stop-color:#F48520"/>
	</linearGradient>
	<path class="st15" d="M258.6,213.6c0,11.7,9.4,21.1,21.1,21.1h96l7-12h-7h-96c-5,0-9.1-4.1-9.1-9.1V180l-12-12V213.6z"/>
	<linearGradient id="SVGID_10_" gradientUnits="userSpaceOnUse" x1="195.2197" y1="260.6849" x2="425.8472" y2="260.6849">
		<stop  offset="0" style="stop-color:#FDD726"/>
		<stop  offset="0.4741" style="stop-color:#F47F20"/>
		<stop  offset="0.9814" style="stop-color:#ED2A26"/>
	</linearGradient>
	<polygon class="st16" points="405.2,286.6 425.8,298.6 415.6,280.7 386.1,228.8 382.6,222.8 375.7,234.8 	"/>
	<linearGradient id="SVGID_11_" gradientUnits="userSpaceOnUse" x1="308.3938" y1="177.0559" x2="352.4304" y2="101.3129">
		<stop  offset="0" style="stop-color:#EF3B24"/>
		<stop  offset="0.9814" style="stop-color:#C82627"/>
	</linearGradient>
	<polygon class="st17" points="307,168 313.9,180 317.4,174 346.9,122.1 357.1,104.2 336.5,116.2 	"/>
	<linearGradient id="SVGID_12_" gradientUnits="userSpaceOnUse" x1="226.8897" y1="2.2485" x2="226.8897" y2="278.9334">
		<stop  offset="0" style="stop-color:#FFDF00"/>
		<stop  offset="0.5" style="stop-color:#EF6F22"/>
		<stop  offset="1" style="stop-color:#EE2524"/>
	</linearGradient>
	<path class="st18" d="M207.2,235.3V15.1l-12-12v12v220.1c0,34.9,28.4,63.3,63.3,63.3v-12C230.2,286.6,207.2,263.6,207.2,235.3z"/>
	<polygon class="st19" points="405.2,286.6 258.6,286.6 258.6,298.6 405.2,298.6 425.8,298.6 	"/>
	<linearGradient id="SVGID_13_" gradientUnits="userSpaceOnUse" x1="195.2197" y1="9.1299" x2="374.7379" y2="9.1299">
		<stop  offset="0" style="stop-color:#FED700"/>
		<stop  offset="0.3975" style="stop-color:#F7B818"/>
		<stop  offset="0.9565" style="stop-color:#F7931E"/>
	</linearGradient>
	<polygon class="st20" points="363.1,15.1 375.1,3.1 363.1,3.1 207.2,3.1 195.2,3.1 207.2,15.1 	"/>
	<linearGradient id="SVGID_14_" gradientUnits="userSpaceOnUse" x1="369.1097" y1="3.3494" x2="369.1097" y2="78.2233">
		<stop  offset="0" style="stop-color:#E41E25"/>
		<stop  offset="1" style="stop-color:#ED2224"/>
	</linearGradient>
	<polygon class="st21" points="363.1,67 375.1,79 375.1,67 375.1,15.1 375.1,3.1 363.1,15.1 	"/>
	<polygon class="st22" points="258.6,67 270.6,79 363.1,79 375.1,79 363.1,67 	"/>
	<polygon class="st22" points="258.6,116.2 270.6,104.2 270.6,79 258.6,67 	"/>
	<linearGradient id="SVGID_15_" gradientUnits="userSpaceOnUse" x1="258.3022" y1="110.1899" x2="357.3885" y2="110.1899">
		<stop  offset="9.293035e-02" style="stop-color:#EE2424"/>
		<stop  offset="0.4548" style="stop-color:#EF4623"/>
		<stop  offset="0.9052" style="stop-color:#EF3824"/>
	</linearGradient>
	<polygon class="st23" points="336.5,116.2 357.1,104.2 336.5,104.2 270.6,104.2 258.6,116.2 	"/>
</g>
<g>
	<g>
		<linearGradient id="SVGID_16_" gradientUnits="userSpaceOnUse" x1="477.3846" y1="292.6147" x2="477.3846" y2="9.1293">
			<stop  offset="0.8071" style="stop-color:#FBE021"/>
			<stop  offset="0.8956" style="stop-color:#FDD625"/>
			<stop  offset="0.975" style="stop-color:#FFC824"/>
		</linearGradient>
		<polygon class="st24" points="445.7,292.6 445.7,73 393.4,73 393.4,9.1 561.3,9.1 561.3,73 509.1,73 509.1,292.6 		"/>
		<linearGradient id="SVGID_17_" gradientUnits="userSpaceOnUse" x1="477.3843" y1="292.8901" x2="477.3843" y2="109.2563">
			<stop  offset="0" style="stop-color:#FFEA24"/>
			<stop  offset="0.5041" style="stop-color:#FFC709"/>
			<stop  offset="1" style="stop-color:#F99F1B"/>
		</linearGradient>
		<path class="st25" d="M445.7,292.6h63.3V107.6c-21.2,0.5-42.3,1.7-63.3,3.4V292.6z"/>
		<path class="st13" d="M445.7,103.5v7.5c21-1.8,42.1-2.9,63.3-3.4v-7.7C487.9,100.4,466.7,101.6,445.7,103.5z"/>
	</g>
	<polygon class="st26" points="399.4,15.1 387.4,3.1 387.4,15.1 387.4,67 387.4,79 399.4,67 	"/>
	<linearGradient id="SVGID_18_" gradientUnits="userSpaceOnUse" x1="387.4396" y1="9.1292" x2="567.3292" y2="9.1292">
		<stop  offset="7.287523e-02" style="stop-color:#F4EA00"/>
		<stop  offset="0.5137" style="stop-color:#FFE800"/>
		<stop  offset="0.9599" style="stop-color:#FABE13"/>
	</linearGradient>
	<polygon class="st27" points="555.3,15.1 567.3,3.1 555.3,3.1 399.4,3.1 387.4,3.1 399.4,15.1 	"/>
	<linearGradient id="SVGID_19_" gradientUnits="userSpaceOnUse" x1="387.5497" y1="72.9823" x2="445.1123" y2="72.9823">
		<stop  offset="0" style="stop-color:#F6E400"/>
		<stop  offset="0.9087" style="stop-color:#EE8322"/>
	</linearGradient>
	<polygon class="st28" points="399.4,67 387.4,79 399.4,79 439.7,79 451.7,67 	"/>
	<polygon class="st29" points="451.7,286.6 439.7,298.6 451.7,298.6 503.1,298.6 515.1,298.6 503.1,286.6 	"/>
	<linearGradient id="SVGID_20_" gradientUnits="userSpaceOnUse" x1="502.4852" y1="72.9823" x2="567.2729" y2="72.9823">
		<stop  offset="0.1433" style="stop-color:#F57F20"/>
		<stop  offset="0.9153" style="stop-color:#FBAE18"/>
	</linearGradient>
	<polygon class="st30" points="503.1,67 515.1,79 555.3,79 567.3,79 555.3,67 	"/>
	<linearGradient id="SVGID_21_" gradientUnits="userSpaceOnUse" x1="561.3292" y1="2.909" x2="561.3292" y2="78.8527">
		<stop  offset="0.1481" style="stop-color:#FABE18"/>
		<stop  offset="0.9021" style="stop-color:#F6871F"/>
	</linearGradient>
	<polygon class="st31" points="555.3,15.1 555.3,67 567.3,79 567.3,67 567.3,15.1 567.3,3.1 	"/>
	<linearGradient id="SVGID_22_" gradientUnits="userSpaceOnUse" x1="509.0536" y1="66.9823" x2="509.0536" y2="298.6149">
		<stop  offset="9.267385e-03" style="stop-color:#F47F20"/>
		<stop  offset="0.5" style="stop-color:#F99B1C"/>
		<stop  offset="0.9663" style="stop-color:#FAA819"/>
	</linearGradient>
	<polygon class="st32" points="503.1,286.6 515.1,298.6 515.1,286.6 515.1,79 503.1,67 	"/>
	<linearGradient id="SVGID_23_" gradientUnits="userSpaceOnUse" x1="445.7152" y1="66.9823" x2="445.7152" y2="300.8102">
		<stop  offset="0" style="stop-color:#ED8123"/>
		<stop  offset="0.5" style="stop-color:#FFC60A"/>
		<stop  offset="1" style="stop-color:#FBEE2D"/>
	</linearGradient>
	<polygon class="st33" points="451.7,67 439.7,79 439.7,286.6 439.7,298.6 451.7,286.6 	"/>
</g>
<g>
	<g>
		<linearGradient id="SVGID_24_" gradientUnits="userSpaceOnUse" x1="679.1148" y1="292.6098" x2="679.1148" y2="9.1298">
			<stop  offset="0.5631" style="stop-color:#93C94E"/>
			<stop  offset="0.767" style="stop-color:#7BC144"/>
			<stop  offset="0.9768" style="stop-color:#56B947"/>
		</linearGradient>
		<path class="st34" d="M753.9,292.6l-97.2-160.9l14.2-19.4l11-15.2c2-2.7,3-5.8,3-9.1c0-7.8-6.1-14.4-13.9-15.1l-0.1,0
			c-0.3,0-0.7,0-1.1,0c-0.5,0-0.8,0-1.1,0l-0.3,0h-18.6v219.6h-63.3V9.1h121.8l0.2,0c30.7,2.1,54.9,26.8,56.3,57.6
			c0,0.9,0.1,1.8,0.1,2.8c0,12.2-3.6,23.9-10.4,33.9l-1.6,2.3l-20.3,28.4l39.4,65.5v93H753.9z"/>
		<linearGradient id="SVGID_25_" gradientUnits="userSpaceOnUse" x1="679.1148" y1="293.1103" x2="679.1148" y2="109.0325">
			<stop  offset="0" style="stop-color:#85C442"/>
			<stop  offset="0.497" style="stop-color:#51B848"/>
			<stop  offset="1" style="stop-color:#219245"/>
		</linearGradient>
		<path class="st35" d="M668.8,115.1c23.3,2.8,46.5,6.4,69.4,10.8l-5.9,8.2l39.4,65.5v93h-17.9l-97.2-160.9L668.8,115.1z
			 M586.4,292.6h63.3V113c-21-2.2-42.2-3.7-63.3-4.7V292.6z"/>
		<path class="st36" d="M649.7,105.5v7.4c-21-2.2-42.2-3.7-63.3-4.7v-7.7C607.6,101.6,628.7,103.2,649.7,105.5z M673.7,108.4
			l-2.8,3.9l-2,2.8c23.3,2.8,46.5,6.4,69.4,10.8l4.2-5.9C719.8,115.3,696.8,111.5,673.7,108.4z"/>
	</g>
	<polygon class="st37" points="592.4,286.6 580.4,298.6 592.4,298.6 643.7,298.6 655.7,298.6 643.7,286.6 	"/>
	<linearGradient id="SVGID_26_" gradientUnits="userSpaceOnUse" x1="730.6973" y1="129.8497" x2="771.8409" y2="201.1126">
		<stop  offset="2.528703e-02" style="stop-color:#107C3F"/>
		<stop  offset="0.5115" style="stop-color:#38AD4A"/>
		<stop  offset="1" style="stop-color:#92C953"/>
	</linearGradient>
	<polygon class="st38" points="765.8,201.3 777.8,198 776.1,195.1 739.5,134.4 725.2,133.8 	"/>
	<linearGradient id="SVGID_27_" gradientUnits="userSpaceOnUse" x1="586.4097" y1="3.5696" x2="586.4097" y2="299.0496">
		<stop  offset="3.842068e-02" style="stop-color:#7AC145"/>
		<stop  offset="0.5" style="stop-color:#40B549"/>
		<stop  offset="1" style="stop-color:#2AA048"/>
	</linearGradient>
	<polygon class="st39" points="592.4,15.1 580.4,3.1 580.4,15.1 580.4,286.6 580.4,298.6 592.4,286.6 	"/>
	<linearGradient id="SVGID_28_" gradientUnits="userSpaceOnUse" x1="771.8196" y1="197.1105" x2="771.8196" y2="298.2285">
		<stop  offset="0" style="stop-color:#26A149"/>
		<stop  offset="1" style="stop-color:#1C4822"/>
	</linearGradient>
	<polygon class="st40" points="765.8,201.3 765.8,286.6 777.8,298.6 777.8,286.6 777.8,201.3 777.8,198 	"/>
	<polygon class="st41" points="757.3,286.6 750.5,298.6 757.3,298.6 765.8,298.6 777.8,298.6 765.8,286.6 	"/>
	<linearGradient id="SVGID_29_" gradientUnits="userSpaceOnUse" x1="649.7497" y1="66.9799" x2="649.7497" y2="298.9896">
		<stop  offset="0" style="stop-color:#12713A"/>
		<stop  offset="0.5" style="stop-color:#1E8642"/>
		<stop  offset="1" style="stop-color:#489F46"/>
	</linearGradient>
	<polygon class="st42" points="655.7,122.9 655.7,79 643.7,67 643.7,286.6 655.7,298.6 655.7,286.6 655.7,141.8 649.5,131.4 	"/>
	<linearGradient id="SVGID_30_" gradientUnits="userSpaceOnUse" x1="580.4097" y1="9.1299" x2="699.9982" y2="9.1299">
		<stop  offset="5.586919e-02" style="stop-color:#79C144"/>
		<stop  offset="0.5797" style="stop-color:#8DC73F"/>
		<stop  offset="1" style="stop-color:#77C043"/>
	</linearGradient>
	<polygon class="st43" points="592.4,3.1 580.4,3.1 592.4,15.1 708,15.1 708,3.1 	"/>
	<linearGradient id="SVGID_31_" gradientUnits="userSpaceOnUse" x1="739.3796" y1="16.12" x2="739.3797" y2="134.7192">
		<stop  offset="2.525172e-02" style="stop-color:#78C144"/>
		<stop  offset="0.4877" style="stop-color:#319B47"/>
		<stop  offset="1" style="stop-color:#117B3E"/>
	</linearGradient>
	<path class="st44" d="M770.7,66.4c-1.5-33.7-28.1-61-61.9-63.2l-0.4,0H708v12c27.5,1.9,49.4,24.2,50.7,51.8c0,0.8,0.1,1.7,0.1,2.5
		c0,11.3-3.5,21.8-9.4,30.5l-1.5,2c0,0-0.1,0.1-0.1,0.1l-22.6,31.6l14.3,0.6l17.9-25.1l0,0l0.2-0.3l1.4-2l0.1-0.1l0.1-0.1
		c7.5-11,11.4-23.9,11.4-37.3C770.7,68.4,770.7,67.4,770.7,66.4z"/>
	<linearGradient id="SVGID_32_" gradientUnits="userSpaceOnUse" x1="654.1717" y1="128.3288" x2="754.5751" y2="293.0257">
		<stop  offset="7.367392e-03" style="stop-color:#15793D"/>
		<stop  offset="0.5" style="stop-color:#28A549"/>
		<stop  offset="1" style="stop-color:#41B449"/>
	</linearGradient>
	<polygon class="st45" points="663.9,132 649.5,131.4 655.7,141.8 747,292.8 750.5,298.6 757.3,286.6 	"/>
	<linearGradient id="SVGID_33_" gradientUnits="userSpaceOnUse" x1="667.3547" y1="131.4959" x2="667.3547" y2="66.7157">
		<stop  offset="0" style="stop-color:#66BC46"/>
		<stop  offset="0.3917" style="stop-color:#34AF4A"/>
		<stop  offset="0.8054" style="stop-color:#076F39"/>
	</linearGradient>
	<path class="st46" d="M675.7,115.8l11-15.2c2.6-3.5,4.2-7.9,4.2-12.7c0-11.1-8.5-20.2-19.4-21c-0.6-0.1-1.2-0.1-1.8-0.1
		c-0.6,0-1.2,0-1.8,0.1h-24.3l12,12h12.3h0.6l0.6-0.1c0,0,0.2,0,0.5,0c0.3,0,0.5,0,0.5,0l0.1,0l0.1,0c4.7,0.4,8.4,4.4,8.4,9.1
		c0,2.5-1,4.4-1.8,5.5l-0.1,0.1l0,0.1l-11,15.2l-10.3,14.1l-6.2,8.6l14.4,0.6L675.7,115.8z"/>
	<linearGradient id="SVGID_34_" gradientUnits="userSpaceOnUse" x1="652.6264" y1="131.5178" x2="652.6264" y2="170.7652">
		<stop  offset="0.1111" style="stop-color:#000000;stop-opacity:0.7"/>
		<stop  offset="0.8034" style="stop-color:#000000;stop-opacity:0.15"/>
		<stop  offset="1" style="stop-color:#000000;stop-opacity:0"/>
	</linearGradient>
	<polygon class="st47" points="655.7,172.5 655.7,141.8 649.5,131.4 	"/>
</g>
<g>
	<g>
		<linearGradient id="SVGID_35_" gradientUnits="userSpaceOnUse" x1="828.2281" y1="292.6147" x2="828.2281" y2="9.1293">
			<stop  offset="0.4626" style="stop-color:#6BCBDA"/>
			<stop  offset="0.5514" style="stop-color:#6FCCDC"/>
			<stop  offset="0.7153" style="stop-color:#5FC9DE"/>
			<stop  offset="0.8759" style="stop-color:#35C4E7"/>
			<stop  offset="0.9788" style="stop-color:#08BAED"/>
		</linearGradient>
		<rect x="796.6" y="9.1" class="st48" width="63.3" height="283.5"/>
		<linearGradient id="SVGID_36_" gradientUnits="userSpaceOnUse" x1="828.2281" y1="292.6147" x2="828.2281" y2="136.1706">
			<stop  offset="0" style="stop-color:#5CCAE7"/>
			<stop  offset="0.5" style="stop-color:#00C1EB"/>
			<stop  offset="1" style="stop-color:#248ECE"/>
		</linearGradient>
		<path class="st49" d="M796.6,292.6h63.3V157.4c-20.7-6.9-41.9-13.1-63.3-18.5V292.6z"/>
		<path class="st50" d="M796.6,132.7v6.1c21.5,5.5,42.6,11.6,63.3,18.5v-5.2C839.2,144.9,818,138.4,796.6,132.7z"/>
	</g>
	<polygon class="st51" points="853.9,15.1 865.9,3.1 853.9,3.1 802.6,3.1 790.6,3.1 802.6,15.1 	"/>
	<linearGradient id="SVGID_37_" gradientUnits="userSpaceOnUse" x1="859.8973" y1="2.0283" x2="859.8973" y2="298.5007">
		<stop  offset="0" style="stop-color:#19C3EE"/>
		<stop  offset="0.261" style="stop-color:#0EBCEE"/>
		<stop  offset="0.5" style="stop-color:#269BD7"/>
		<stop  offset="0.7534" style="stop-color:#2B78BD"/>
		<stop  offset="1" style="stop-color:#325FAC"/>
	</linearGradient>
	<polygon class="st52" points="853.9,15.1 853.9,286.6 865.9,298.6 865.9,286.6 865.9,15.1 865.9,3.1 	"/>
	<polygon class="st53" points="802.6,286.6 790.6,298.6 802.6,298.6 853.9,298.6 865.9,298.6 853.9,286.6 	"/>
	<linearGradient id="SVGID_38_" gradientUnits="userSpaceOnUse" x1="796.559" y1="3.5696" x2="796.559" y2="299.6047">
		<stop  offset="0" style="stop-color:#19C3EE"/>
		<stop  offset="0.261" style="stop-color:#40C4DE"/>
		<stop  offset="0.5" style="stop-color:#00ACE4"/>
		<stop  offset="0.7534" style="stop-color:#2A7ABF"/>
		<stop  offset="1" style="stop-color:#325FAC"/>
	</linearGradient>
	<polygon class="st54" points="802.6,15.1 790.6,3.1 790.6,15.1 790.6,286.6 790.6,298.6 802.6,286.6 	"/>
</g>
<g>
	<g>
		<linearGradient id="SVGID_39_" gradientUnits="userSpaceOnUse" x1="967.2247" y1="292.6098" x2="967.2247" y2="8.9999">
			<stop  offset="0.2546" style="stop-color:#B95AA3"/>
			<stop  offset="0.4099" style="stop-color:#BD5AA2"/>
			<stop  offset="0.5841" style="stop-color:#BC59A2"/>
			<stop  offset="0.9653" style="stop-color:#A73E97"/>
		</linearGradient>
		<path class="st55" d="M886.2,292.6v-63.9h71.4c7.6,0,13.8-6.2,13.8-13.8c0-2.7-0.8-5.3-2.2-7.5l-0.1-0.1c-0.2-0.3-0.5-0.7-0.8-1.1
			l-0.3-0.4l-72.9-100.7c-7.6-10.4-11.6-22.7-11.6-35.6C883.5,36.1,910.7,9,944,9c1.4,0,2.7,0,3.9,0.1h100.5l-38,63.9h-31.2l-0.3,0
			c-0.3,0-0.7,0-1.2,0c-0.5,0-0.8,0-1.2,0l-0.1,0c-7.9,0.6-14.1,7.4-14.1,15.3c0,3.2,1,6.3,2.9,9l73.5,98.5
			c8,10.5,12.2,23.1,12.2,36.4c0,1,0,1.9-0.1,2.9c-1.5,32.3-28,57.6-60.4,57.6H886.2z"/>
		<path class="st56" d="M1048.6,248.8c-27.7-20-57.3-38-88.4-54l3.6,5c29.8,14.7,58.1,31.2,84.7,49.6
			C1048.5,249.2,1048.5,249,1048.6,248.8z"/>
		<linearGradient id="SVGID_40_" gradientUnits="userSpaceOnUse" x1="967.3213" y1="292.2296" x2="967.3213" y2="209.8799">
			<stop  offset="9.011765e-02" style="stop-color:#B44E9D"/>
			<stop  offset="1" style="stop-color:#AA4198"/>
		</linearGradient>
		<path class="st57" d="M963.7,199.9l4.3,6l0.3,0.4c0.3,0.4,0.6,0.8,0.8,1.1l0.1,0.1c1.5,2.2,2.2,4.8,2.2,7.5
			c0,7.6-6.2,13.8-13.8,13.8h-71.4v63.9h104.2c27.4,0,50.6-18.1,58-43.2C1021.8,231.1,993.5,214.6,963.7,199.9z"/>
	</g>
	<linearGradient id="SVGID_41_" gradientUnits="userSpaceOnUse" x1="1004.5251" y1="81.0641" x2="1052.525" y2="4.4404">
		<stop  offset="0.1339" style="stop-color:#541347"/>
		<stop  offset="0.5665" style="stop-color:#571249"/>
		<stop  offset="1" style="stop-color:#441953"/>
	</linearGradient>
	<polygon class="st58" points="1007,67 1013.8,79 1017.3,73.1 1048.2,21.3 1059,3.1 1037.9,15.1 	"/>
	<linearGradient id="SVGID_42_" gradientUnits="userSpaceOnUse" x1="877.5297" y1="36.2349" x2="1058.9734" y2="36.2349">
		<stop  offset="0.2395" style="stop-color:#B4529F"/>
		<stop  offset="0.6153" style="stop-color:#B34A9B"/>
		<stop  offset="0.9792" style="stop-color:#902786"/>
	</linearGradient>
	<path class="st59" d="M944,15c1.2,0,2.5,0,3.7,0.1h90.1l21.1-12h-21.1h-89.7C946.8,3,945.4,3,944,3c-36.6,0-66.5,29.8-66.5,66.5h12
		C889.5,39.4,913.9,15,944,15z"/>
	<polygon class="st60" points="979.5,67 979.5,79 1007,79 1013.8,79 1007,67 	"/>
	<linearGradient id="SVGID_43_" gradientUnits="userSpaceOnUse" x1="877.5297" y1="265.3799" x2="1058.9734" y2="265.3799">
		<stop  offset="8.011129e-02" style="stop-color:#581145"/>
		<stop  offset="0.518" style="stop-color:#621954"/>
		<stop  offset="0.8719" style="stop-color:#A0248F"/>
	</linearGradient>
	<path class="st61" d="M1044.9,234.8c-1.4,28.9-25.2,51.9-54.4,51.9h-98.2l-12,12h12h98.2c35.6,0,64.7-27.8,66.4-63.3
		c0-1,0.1-2.1,0.1-3.2h-12C1044.9,233,1044.9,233.9,1044.9,234.8z"/>
	<linearGradient id="SVGID_44_" gradientUnits="userSpaceOnUse" x1="927.4896" y1="71.1658" x2="927.4897" y2="234.1036">
		<stop  offset="0" style="stop-color:#B4519F"/>
		<stop  offset="0.5102" style="stop-color:#AA3A95"/>
		<stop  offset="0.751" style="stop-color:#812677"/>
		<stop  offset="0.9113" style="stop-color:#651B57"/>
	</linearGradient>
	<path class="st62" d="M977.4,214.9c0-4-1.2-7.7-3.2-10.8c-0.4-0.6-0.8-1.2-1.3-1.8l-0.1-0.1l-11.7-16.1L900,101.6
		c-6.6-9-10.5-20.1-10.5-32.1h-12c0,14.2,4.4,27.8,12.8,39.2l61.2,84.6l11.7,16.1l0.1,0.1l0.1,0.1l0.1,0.1l0.2,0.2l0.2,0.2
		c0.2,0.3,0.3,0.4,0.4,0.5l0.1,0.1l0.1,0.1c0.8,1.3,1.2,2.7,1.2,4.2c0,4.3-3.5,7.8-7.8,7.8v12C968.6,234.8,977.4,225.9,977.4,214.9z
		"/>
	<linearGradient id="SVGID_45_" gradientUnits="userSpaceOnUse" x1="1069.3784" y1="226.0342" x2="957.0851" y2="75.8694">
		<stop  offset="1.828590e-02" style="stop-color:#A0258E"/>
		<stop  offset="0.3235" style="stop-color:#8B2681"/>
		<stop  offset="0.6785" style="stop-color:#611B57"/>
		<stop  offset="0.921" style="stop-color:#541147"/>
	</linearGradient>
	<path class="st63" d="M981.5,109.1l-11.2-15l0,0l0,0l-0.3-0.3c-0.8-1.1-1.7-3-1.7-5.4c0-4.8,3.8-8.9,8.6-9.3l0.1,0l0.1,0
		c0,0,0.2,0,0.5,0c0.3,0,0.5,0,0.6,0l0.6,0.1h0.6V67c-0.6-0.1-1.2-0.1-1.8-0.1c-0.6,0-1.2,0-1.8,0.1c-11,0.9-19.6,10.1-19.6,21.3
		c0,4.7,1.5,9,4.1,12.5l0.3,0.5l11.2,15l62,83.1c6.9,9.1,11,20.5,11,32.8h12c0-14.6-4.6-28.4-13.4-40L981.5,109.1z"/>
	<linearGradient id="SVGID_46_" gradientUnits="userSpaceOnUse" x1="886.2097" y1="223.0921" x2="886.2097" y2="296.6451">
		<stop  offset="0.1555" style="stop-color:#A0328D"/>
		<stop  offset="0.854" style="stop-color:#581044"/>
	</linearGradient>
	<polygon class="st64" points="892.2,234.8 880.2,222.8 880.2,234.8 880.2,286.6 880.2,298.6 892.2,286.6 	"/>
	<linearGradient id="SVGID_47_" gradientUnits="userSpaceOnUse" x1="879.6588" y1="228.7599" x2="954.3074" y2="228.7599">
		<stop  offset="1.254012e-02" style="stop-color:#A93895"/>
		<stop  offset="0.5" style="stop-color:#812679"/>
		<stop  offset="1" style="stop-color:#641D57"/>
	</linearGradient>
	<polygon class="st65" points="957.6,234.8 957.6,222.8 892.2,222.8 880.2,222.8 892.2,234.8 	"/>
</g>
<path class="st66" d="M1070.7,66c-0.5-1.6-2.2-3-2.2-3s2.4-0.8,2.4-3.1c0-4.7-4.6-4.7-4.6-4.7h-7.7v14.7h3.9v-5.4h2.4
	c0,0,1.1,1.1,1.7,2.2c0.6,1.2,0.9,3.1,0.9,3.1h4C1071.5,69.9,1071.3,67.6,1070.7,66z M1064.6,61.8h-2V58h1.9c0,0,2.2,0,2.2,1.9
	C1066.6,61.8,1064.6,61.8,1064.6,61.8z M1064.6,47.5c-8.3,0-15,6.7-15,15c0,8.3,6.7,15,15,15c8.3,0,15-6.7,15-15
	C1079.6,54.3,1072.9,47.5,1064.6,47.5z M1064.6,73.8c-6.2,0-11.2-5-11.2-11.2c0-6.2,5-11.2,11.2-11.2c6.2,0,11.2,5,11.2,11.2
	C1075.8,68.8,1070.8,73.8,1064.6,73.8z"/>
</svg>
